<svg xmlns="http://www.w3.org/2000/svg" viewBox="0 0 36 36">
	<defs>
		<pattern id="smallGrid" width="1" height="1" patternUnits="userSpaceOnUse">
			<path d="M 1 0 L 0 0 0 1" fill="none" stroke="gray" stroke-width="0.1"/>
		</pattern>
		<pattern id="grid" width="5" height="5" patternUnits="userSpaceOnUse">
			<rect width="5" height="5" fill="url(#smallGrid)"/>
			<path d="M 5 0 L 0 0 0 5" fill="none" stroke="black" stroke-width="0.2"/>
		</pattern>
    </defs>
      
    <rect width="100%" height="100%" fill="url(#grid)" />
	<path fill="#DD2E44" d="
	M24 7
	c -3  0  -3  1  -6   1
	s -3 -1  -6 -1
	c -4  0  -9  2  -9   9 
	   0  11  6  20  10  20 
	   3  0   3 -1   5  -1
	s2 1 5 1
	c4 0 10-9 10-20 0-7.001-5-9-9-9
	z"/>
	<!-- <path fill="#77B255" d="M19 7s3-4 8-4c4 0 6 2 6 2s-4 3-7 3-7-1-7-1z"/> -->
	<!-- <path fill="#662113" d="M18 10c-.552 0-1-.448-1-1 0-3.441 1.2-6.615 3.293-8.707.391-.391 1.023-.391 1.414 0s.391 1.024 0 1.414C19.986 3.427 19 6.085 19 9c0 .552-.448 1-1 1z"/> -->
	<!-- First c -->
	<circle fill="blue" cx="24" cy="7" r="0.1" />
	<circle fill="darkblue" cx="21" cy="7" r="0.1" />
	<circle fill="darkblue" cx="21" cy="8" r="0.1" />
	<!-- First s -->
	<circle fill="blue" cx="18" cy="8" r="0.1" />
	<circle fill="darkblue" cx="15" cy="7" r="0.1" />
	<!-- Second c -->
	<circle fill="blue" cx="12" cy="7" r="0.1" />
	<circle fill="darkblue" cx="8" cy="7" r="0.1" />
	<circle fill="darkblue" cx="3" cy="9" r="0.1" />
	<circle fill="blue" cx="3" cy="16" r="0.1" />
	<rect />
</svg>