<svg version="1.1" id="Layer_1" xmlns="http://www.w3.org/2000/svg" xmlns:xlink="http://www.w3.org/1999/xlink" x="0px" y="0px"
	 width="100%" viewBox="0 0 864 864" enable-background="new 0 0 864 864" xml:space="preserve">
<path fill="#FFFEFE" opacity="1.000000" stroke="none" 
	d="
M486.000000,865.000000 
	C324.000061,865.000000 162.500092,865.000000 1.000108,865.000000 
	C1.000072,577.000122 1.000072,289.000275 1.000036,1.000301 
	C288.999786,1.000201 576.999573,1.000201 864.999512,1.000100 
	C864.999634,288.999695 864.999634,576.999390 864.999817,864.999512 
	C738.833313,865.000000 612.666687,865.000000 486.000000,865.000000 
M411.791931,212.073349 
	C413.118378,211.967041 414.443756,211.785095 415.771454,211.766388 
	C426.363464,211.617096 426.575439,211.658310 428.133667,201.255035 
	C429.906372,189.419968 430.990417,177.479996 432.840729,165.658707 
	C435.804596,146.722733 435.371887,127.894043 432.230103,109.044518 
	C429.377625,91.930779 426.651611,74.795815 423.917572,57.662598 
	C423.421753,54.555519 422.356537,53.225979 418.665222,53.596909 
	C405.100830,54.959980 391.490692,55.878769 377.892120,56.888115 
	C368.795807,57.563278 359.689850,58.108799 349.823242,58.763065 
	C350.396057,60.733395 350.607208,62.499462 351.383789,63.966152 
	C357.509796,75.536110 364.967621,86.570312 369.700897,98.674545 
	C381.112518,127.857033 393.185028,156.907425 399.594269,187.773438 
	C401.028381,194.679871 401.224915,201.843277 401.232971,208.826630 
	C376.601135,200.405563 351.831299,201.531006 326.920563,207.517899 
	C322.707672,208.530396 322.667175,211.084412 323.231201,214.225952 
	C324.049530,218.784103 325.330566,223.278198 325.873322,227.863632 
	C328.788055,252.489136 331.519623,277.136261 334.344391,301.772461 
	C337.510376,329.384247 340.730255,356.989868 343.886322,384.602783 
	C347.042450,412.216339 350.125641,439.838257 353.283356,467.451660 
	C356.459930,495.229767 359.711426,522.999329 362.888519,550.777344 
	C366.046844,578.391357 369.138306,606.012939 372.286957,633.628052 
	C375.492035,661.737854 378.722321,689.844849 381.957977,717.951111 
	C384.812958,742.751282 387.813019,767.535400 390.517822,792.351868 
	C392.536469,810.872681 394.262909,829.426697 395.959259,847.980530 
	C396.553070,854.475403 398.786011,856.741760 405.453003,856.417542 
	C413.434662,856.029480 421.430725,854.953247 429.384888,855.223755 
	C440.373749,855.597412 444.044769,851.763000 442.745880,840.817505 
	C439.686432,815.036194 436.938538,789.217773 434.101440,763.410339 
	C431.282410,737.767151 428.532715,712.116272 425.708252,686.473694 
	C422.537689,657.689148 419.291840,628.912842 416.125793,600.127808 
	C412.959534,571.341370 409.945801,542.537537 406.594025,513.772888 
	C406.191040,510.314545 406.903290,508.777435 409.923401,507.237183 
	C427.204895,498.424042 442.191528,486.543274 454.530396,471.627289 
	C489.674469,429.143005 502.610413,380.356781 494.185455,326.066315 
	C488.706116,290.757111 473.244781,260.362701 446.905426,235.810287 
	C436.212311,225.842667 423.714478,218.645355 411.791931,212.073349 
M241.731247,532.188354 
	C257.995728,530.094360 274.260193,528.000427 290.621277,525.893982 
	C290.903412,527.369507 291.084015,528.167664 291.206238,528.974609 
	C294.221619,548.880066 297.220886,568.788086 300.243225,588.692505 
	C306.112915,627.349060 312.010986,666.001282 317.867432,704.659851 
	C323.773621,743.647217 329.682434,782.634155 335.497986,821.635071 
	C336.720734,829.834961 338.126404,838.077698 338.366364,846.332092 
	C338.562195,853.066956 341.689484,857.823181 348.589783,857.663940 
	C357.405457,857.460510 366.251251,856.949585 374.995819,855.861755 
	C380.508209,855.176025 382.791992,853.023438 381.979126,847.626526 
	C380.745941,839.438782 379.243195,831.290649 378.073578,823.094482 
	C373.513428,791.137817 369.030731,759.169983 364.535645,727.203979 
	C360.040588,695.238098 355.571045,663.268494 351.079346,631.302124 
	C346.564514,599.170654 342.030396,567.041870 337.515381,534.910461 
	C332.699432,500.637177 327.898865,466.361725 323.086121,432.087952 
	C318.574219,399.956512 314.052826,367.826355 309.540009,335.695038 
	C305.050293,303.728271 300.564728,271.760895 296.079926,239.793427 
	C294.253632,226.775696 292.737122,213.702347 290.404175,200.776199 
	C289.801788,197.438690 287.319885,193.116379 284.508301,191.805557 
	C280.062195,189.732727 274.513733,188.736725 269.597321,189.168823 
	C237.127655,192.022537 206.693771,201.591614 178.787827,218.589828 
	C130.439316,248.040131 98.625580,290.917969 78.785690,343.201294 
	C57.005138,400.598724 53.310093,459.947479 61.346870,520.266846 
	C68.200157,571.703552 84.015274,620.441956 108.086609,666.390930 
	C141.618073,730.398071 186.862839,784.182434 248.048843,823.508606 
	C262.980164,833.105347 278.985260,841.033936 294.520416,849.686829 
	C298.227997,851.751892 304.641479,850.335815 306.509216,845.288696 
	C309.754364,836.519653 313.668579,828.000732 317.109314,819.300537 
	C318.516388,815.742554 319.421417,811.986084 320.450165,808.658508 
	C314.258240,804.349243 308.695221,800.084656 302.761536,796.420288 
	C283.435425,784.485352 265.220642,771.087952 248.533066,755.677917 
	C201.202667,711.971130 164.022354,661.221375 141.708954,600.340393 
	C135.807968,584.239929 130.825638,567.817505 130.708908,550.378784 
	C130.671432,544.780701 132.417068,543.428833 137.542313,545.030518 
	C138.884567,545.450012 140.446152,545.481812 141.859970,545.308289 
	C152.926025,543.950012 163.985153,542.532349 175.037842,541.068359 
	C196.976852,538.162476 218.910370,535.215149 241.731247,532.188354 
M722.055786,593.596069 
	C716.242615,606.721313 710.634827,619.942993 704.534729,632.933411 
	C701.195129,640.045105 697.047302,646.779297 693.221069,653.659851 
	C689.560547,660.242249 686.396606,667.187805 682.046448,673.282898 
	C670.328979,689.700623 658.269043,705.883118 645.999634,721.894165 
	C638.851990,731.221497 631.394409,740.365234 623.447937,749.014099 
	C610.344849,763.275208 596.425903,776.673157 578.380066,784.796814 
	C574.586304,786.504639 572.355347,789.446472 572.115234,793.695190 
	C571.280029,808.472473 570.420044,823.248596 569.672852,838.030396 
	C569.473328,841.977844 571.182678,845.021790 574.596863,847.235657 
	C580.769897,851.238281 586.946228,851.841492 594.005981,849.236267 
	C611.767517,842.681885 627.268311,832.437988 641.729431,820.575684 
	C696.644775,775.528809 737.577576,719.737244 767.704468,655.719055 
	C772.427490,645.683044 777.441711,635.768250 781.750854,625.556702 
	C789.492798,607.210083 796.761169,588.666382 799.916260,568.833313 
	C800.971436,562.200317 802.948059,555.533875 802.788269,548.924133 
	C802.426636,533.963684 799.328247,519.228638 794.122253,505.286560 
	C790.497192,495.578156 784.885925,486.527588 779.509521,477.574982 
	C769.224915,460.449646 755.470825,446.236786 740.044189,433.750732 
	C733.265869,428.264496 725.405457,424.133179 718.173401,419.186340 
	C694.508667,402.999268 675.072937,382.559021 658.715393,359.156616 
	C643.832886,337.864594 631.580139,315.274902 626.593750,289.416199 
	C624.790222,280.063293 623.982117,270.662811 628.137512,261.144806 
	C629.948303,262.156677 631.525269,262.977386 633.043335,263.895386 
	C652.815430,275.851562 670.668457,290.241577 687.007568,306.540558 
	C706.584106,326.069000 723.245239,347.740112 735.803345,372.484467 
	C739.367432,379.507172 743.263245,386.385284 747.404175,393.084106 
	C750.781982,398.548431 753.388306,399.247131 756.668518,396.588013 
	C765.413818,389.498383 774.136536,382.380219 782.931091,375.352112 
	C787.996582,371.304047 790.011719,366.062683 788.529297,359.891846 
	C786.978455,353.435760 785.170105,346.987640 782.811401,340.788239 
	C766.686035,298.405426 740.206848,263.433563 705.673584,234.416275 
	C683.640747,215.902786 659.328064,201.405106 631.063599,194.495682 
	C616.209717,190.864578 602.185364,189.259933 589.477234,201.891434 
	C574.811707,216.468460 566.716187,233.379639 564.982361,253.717575 
	C563.857117,266.916046 562.426697,280.089386 561.386780,293.293976 
	C560.483765,304.760223 560.526428,316.238312 563.702637,327.426331 
	C579.821655,384.204376 618.032898,423.654999 665.253113,455.710083 
	C687.078857,470.526276 708.262939,485.741150 724.011719,507.438019 
	C733.395691,520.366211 736.771484,534.243347 733.270386,549.824036 
	C732.409790,553.653931 731.932373,557.575989 730.955566,561.372559 
	C728.239136,571.930725 725.352783,582.445251 722.055786,593.596069 
M555.421753,186.773697 
	C544.683167,187.522934 533.932983,188.152008 523.221191,189.180618 
	C521.949219,189.302765 520.102051,191.478149 519.862610,192.923859 
	C518.807678,199.294830 518.178162,205.740417 517.517151,212.171585 
	C516.274780,224.257782 515.096619,236.350693 513.928406,248.444351 
	C511.463959,273.957031 509.040619,299.473694 506.567596,324.985565 
	C504.030365,351.160248 501.445129,377.330322 498.897583,403.504028 
	C496.769257,425.370911 494.680328,447.241669 492.546112,469.107971 
	C490.023926,494.948792 487.451019,520.784668 484.938721,546.626404 
	C482.458466,572.138733 480.049683,597.657959 477.566711,623.170044 
	C475.051575,649.012268 472.461578,674.847168 469.946198,700.689392 
	C467.785522,722.887146 465.712982,745.093628 463.548279,767.291016 
	C461.125092,792.139038 458.511444,816.969238 456.244263,841.831238 
	C455.221741,853.044067 461.531647,858.727356 472.636139,857.346436 
	C473.946198,857.183594 475.296417,857.314697 476.626953,857.349915 
	C497.278442,857.896973 517.927429,858.580688 538.581909,858.961792 
	C555.193481,859.268250 557.417297,855.454895 558.404541,842.472046 
	C558.429504,842.143616 558.573730,841.825867 558.619507,841.497192 
	C559.812744,832.930359 561.308472,824.390747 562.088989,815.786255 
	C562.688782,809.173523 558.520142,805.115601 552.434937,805.112183 
	C540.958923,805.105774 529.482605,804.902283 518.006958,804.937500 
	C514.050537,804.949646 512.899841,803.525085 513.362427,799.500610 
	C514.825500,786.771057 515.901550,773.996704 517.106995,761.237793 
	C519.220398,738.866943 521.298462,716.492615 523.428711,694.123352 
	C525.953369,667.612854 528.544556,641.108704 531.057190,614.597046 
	C533.538574,588.416260 535.929932,562.226929 538.412292,536.046204 
	C540.926025,509.534760 543.532837,483.032135 546.043823,456.520416 
	C548.523499,430.339081 551.154114,404.169342 553.316833,377.961395 
	C555.776978,348.149994 557.742737,318.298126 560.028687,288.471893 
	C560.786438,278.585663 561.608826,268.690735 562.875793,258.860870 
	C564.280945,247.958817 566.444214,237.154861 567.870117,226.254913 
	C568.970276,217.844788 569.400024,209.348404 570.202209,200.897446 
	C571.324036,189.078339 567.757996,185.432999 555.421753,186.773697 
M482.176605,156.283478 
	C499.179291,158.280853 516.134521,157.151062 532.964661,154.776184 
	C574.906128,148.857880 613.321106,133.638901 647.734131,108.985535 
	C680.724548,85.351326 708.620239,57.033947 725.851440,19.515091 
	C727.635437,15.630775 726.920959,13.975642 722.365051,13.123660 
	C688.893555,6.864406 655.253418,5.288683 621.562439,10.809892 
	C539.066162,24.329231 477.527557,67.397850 438.347382,141.660782 
	C437.420593,143.417404 436.368561,145.216354 435.994568,147.117447 
	C435.751709,148.351959 436.279053,150.149506 437.138306,151.045746 
	C437.718475,151.650848 439.479706,151.160675 440.709320,151.097092 
	C442.400970,151.009628 444.135162,150.550797 445.772156,150.790405 
	C457.610321,152.523361 469.428589,154.392319 482.176605,156.283478 
z"/>
<path fill="#AC0202" opacity="1.000000" stroke="none" 
	d="
M241.288696,532.236633 
	C218.910370,535.215149 196.976852,538.162476 175.037842,541.068359 
	C163.985153,542.532349 152.926025,543.950012 141.859970,545.308289 
	C140.446152,545.481812 138.884567,545.450012 137.542313,545.030518 
	C132.417068,543.428833 130.671432,544.780701 130.708908,550.378784 
	C130.825638,567.817505 135.807968,584.239929 141.708954,600.340393 
	C164.022354,661.221375 201.202667,711.971130 248.533066,755.677917 
	C265.220642,771.087952 283.435425,784.485352 302.761536,796.420288 
	C308.695221,800.084656 314.258240,804.349243 320.450165,808.658508 
	C319.421417,811.986084 318.516388,815.742554 317.109314,819.300537 
	C313.668579,828.000732 309.754364,836.519653 306.509216,845.288696 
	C304.641479,850.335815 298.227997,851.751892 294.520416,849.686829 
	C278.985260,841.033936 262.980164,833.105347 248.048843,823.508606 
	C186.862839,784.182434 141.618073,730.398071 108.086609,666.390930 
	C84.015274,620.441956 68.200157,571.703552 61.346870,520.266846 
	C53.310093,459.947479 57.005138,400.598724 78.785690,343.201294 
	C98.625580,290.917969 130.439316,248.040131 178.787827,218.589828 
	C206.693771,201.591614 237.127655,192.022537 269.597321,189.168823 
	C274.513733,188.736725 280.062195,189.732727 284.508301,191.805557 
	C287.319885,193.116379 289.801788,197.438690 290.404175,200.776199 
	C292.737122,213.702347 294.253632,226.775696 296.079926,239.793427 
	C300.564728,271.760895 305.050293,303.728271 309.540009,335.695038 
	C314.052826,367.826355 318.574219,399.956512 323.086121,432.087952 
	C327.898865,466.361725 332.699432,500.637177 337.515381,534.910461 
	C342.030396,567.041870 346.564514,599.170654 351.079346,631.302124 
	C355.571045,663.268494 360.040588,695.238098 364.535645,727.203979 
	C369.030731,759.169983 373.513428,791.137817 378.073578,823.094482 
	C379.243195,831.290649 380.745941,839.438782 381.979126,847.626526 
	C382.791992,853.023438 380.508209,855.176025 374.995819,855.861755 
	C366.251251,856.949585 357.405457,857.460510 348.589783,857.663940 
	C341.689484,857.823181 338.562195,853.066956 338.366364,846.332092 
	C338.126404,838.077698 336.720734,829.834961 335.497986,821.635071 
	C329.682434,782.634155 323.773621,743.647217 317.867432,704.659851 
	C312.010986,666.001282 306.112915,627.349060 300.243225,588.692505 
	C297.220886,568.788086 294.221619,548.880066 291.206238,528.974609 
	C291.084015,528.167664 290.903412,527.369507 290.621277,525.893982 
	C274.260193,528.000427 257.995728,530.094360 241.288696,532.236633 
M223.257019,258.729706 
	C220.818848,260.472046 218.254974,262.063782 215.960876,263.978668 
	C154.497162,315.282623 120.532288,380.719177 115.382584,460.751678 
	C114.853119,468.980133 116.044037,477.358429 116.890633,485.620697 
	C117.349937,490.103271 121.361092,492.996124 125.169815,492.446442 
	C129.431702,491.831390 133.675522,491.081055 137.946030,490.537445 
	C171.137009,486.312439 204.334076,482.135315 237.525833,477.916473 
	C249.906128,476.342834 262.286255,474.762054 274.648621,473.055573 
	C280.192505,472.290314 282.433929,469.901245 281.804077,465.735199 
	C279.019165,447.315308 276.158447,428.906891 273.366730,410.488037 
	C268.206970,376.445740 263.069855,342.400055 257.936371,308.353790 
	C255.357025,291.246918 252.887375,274.123016 250.209137,257.031708 
	C248.833221,248.251282 244.378815,246.164001 236.636047,250.524460 
	C232.289215,252.972443 228.102020,255.703903 223.257019,258.729706 
z"/>
<path fill="#AC0101" opacity="1.000000" stroke="none" 
	d="
M722.294678,593.286499 
	C725.352783,582.445251 728.239136,571.930725 730.955566,561.372559 
	C731.932373,557.575989 732.409790,553.653931 733.270386,549.824036 
	C736.771484,534.243347 733.395691,520.366211 724.011719,507.438019 
	C708.262939,485.741150 687.078857,470.526276 665.253113,455.710083 
	C618.032898,423.654999 579.821655,384.204376 563.702637,327.426331 
	C560.526428,316.238312 560.483765,304.760223 561.386780,293.293976 
	C562.426697,280.089386 563.857117,266.916046 564.982361,253.717575 
	C566.716187,233.379639 574.811707,216.468460 589.477234,201.891434 
	C602.185364,189.259933 616.209717,190.864578 631.063599,194.495682 
	C659.328064,201.405106 683.640747,215.902786 705.673584,234.416275 
	C740.206848,263.433563 766.686035,298.405426 782.811401,340.788239 
	C785.170105,346.987640 786.978455,353.435760 788.529297,359.891846 
	C790.011719,366.062683 787.996582,371.304047 782.931091,375.352112 
	C774.136536,382.380219 765.413818,389.498383 756.668518,396.588013 
	C753.388306,399.247131 750.781982,398.548431 747.404175,393.084106 
	C743.263245,386.385284 739.367432,379.507172 735.803345,372.484467 
	C723.245239,347.740112 706.584106,326.069000 687.007568,306.540558 
	C670.668457,290.241577 652.815430,275.851562 633.043335,263.895386 
	C631.525269,262.977386 629.948303,262.156677 628.137512,261.144806 
	C623.982117,270.662811 624.790222,280.063293 626.593750,289.416199 
	C631.580139,315.274902 643.832886,337.864594 658.715393,359.156616 
	C675.072937,382.559021 694.508667,402.999268 718.173401,419.186340 
	C725.405457,424.133179 733.265869,428.264496 740.044189,433.750732 
	C755.470825,446.236786 769.224915,460.449646 779.509521,477.574982 
	C784.885925,486.527588 790.497192,495.578156 794.122253,505.286560 
	C799.328247,519.228638 802.426636,533.963684 802.788269,548.924133 
	C802.948059,555.533875 800.971436,562.200317 799.916260,568.833313 
	C796.761169,588.666382 789.492798,607.210083 781.750854,625.556702 
	C777.441711,635.768250 772.427490,645.683044 767.704468,655.719055 
	C737.577576,719.737244 696.644775,775.528809 641.729431,820.575684 
	C627.268311,832.437988 611.767517,842.681885 594.005981,849.236267 
	C586.946228,851.841492 580.769897,851.238281 574.596863,847.235657 
	C571.182678,845.021790 569.473328,841.977844 569.672852,838.030396 
	C570.420044,823.248596 571.280029,808.472473 572.115234,793.695190 
	C572.355347,789.446472 574.586304,786.504639 578.380066,784.796814 
	C596.425903,776.673157 610.344849,763.275208 623.447937,749.014099 
	C631.394409,740.365234 638.851990,731.221497 645.999634,721.894165 
	C658.269043,705.883118 670.328979,689.700623 682.046448,673.282898 
	C686.396606,667.187805 689.560547,660.242249 693.221069,653.659851 
	C697.047302,646.779297 701.195129,640.045105 704.534729,632.933411 
	C710.634827,619.942993 716.242615,606.721313 722.294678,593.286499 
z"/>
<path fill="#AD0202" opacity="1.000000" stroke="none" 
	d="
M410.829437,212.018906 
	C423.714478,218.645355 436.212311,225.842667 446.905426,235.810287 
	C473.244781,260.362701 488.706116,290.757111 494.185455,326.066315 
	C502.610413,380.356781 489.674469,429.143005 454.530396,471.627289 
	C442.191528,486.543274 427.204895,498.424042 409.923401,507.237183 
	C406.903290,508.777435 406.191040,510.314545 406.594025,513.772888 
	C409.945801,542.537537 412.959534,571.341370 416.125793,600.127808 
	C419.291840,628.912842 422.537689,657.689148 425.708252,686.473694 
	C428.532715,712.116272 431.282410,737.767151 434.101440,763.410339 
	C436.938538,789.217773 439.686432,815.036194 442.745880,840.817505 
	C444.044769,851.763000 440.373749,855.597412 429.384888,855.223755 
	C421.430725,854.953247 413.434662,856.029480 405.453003,856.417542 
	C398.786011,856.741760 396.553070,854.475403 395.959259,847.980530 
	C394.262909,829.426697 392.536469,810.872681 390.517822,792.351868 
	C387.813019,767.535400 384.812958,742.751282 381.957977,717.951111 
	C378.722321,689.844849 375.492035,661.737854 372.286957,633.628052 
	C369.138306,606.012939 366.046844,578.391357 362.888519,550.777344 
	C359.711426,522.999329 356.459930,495.229767 353.283356,467.451660 
	C350.125641,439.838257 347.042450,412.216339 343.886322,384.602783 
	C340.730255,356.989868 337.510376,329.384247 334.344391,301.772461 
	C331.519623,277.136261 328.788055,252.489136 325.873322,227.863632 
	C325.330566,223.278198 324.049530,218.784103 323.231201,214.225952 
	C322.667175,211.084412 322.707672,208.530396 326.920563,207.517899 
	C351.831299,201.531006 376.601135,200.405563 401.928711,209.029144 
	C405.359467,210.160751 408.094452,211.089828 410.829437,212.018906 
M437.920197,326.647491 
	C427.553253,291.995636 400.383392,260.631317 378.588409,258.644012 
	C385.693085,323.182770 392.787598,387.629211 399.882111,452.075623 
	C400.485992,452.329254 401.089844,452.582886 401.693726,452.836487 
	C407.732330,446.516663 414.574768,440.781738 419.671997,433.776855 
	C443.184601,401.464630 447.634033,365.608551 437.920197,326.647491 
z"/>
<path fill="#AD0202" opacity="1.000000" stroke="none" 
	d="
M555.851196,186.777863 
	C567.757996,185.432999 571.324036,189.078339 570.202209,200.897446 
	C569.400024,209.348404 568.970276,217.844788 567.870117,226.254913 
	C566.444214,237.154861 564.280945,247.958817 562.875793,258.860870 
	C561.608826,268.690735 560.786438,278.585663 560.028687,288.471893 
	C557.742737,318.298126 555.776978,348.149994 553.316833,377.961395 
	C551.154114,404.169342 548.523499,430.339081 546.043823,456.520416 
	C543.532837,483.032135 540.926025,509.534760 538.412292,536.046204 
	C535.929932,562.226929 533.538574,588.416260 531.057190,614.597046 
	C528.544556,641.108704 525.953369,667.612854 523.428711,694.123352 
	C521.298462,716.492615 519.220398,738.866943 517.106995,761.237793 
	C515.901550,773.996704 514.825500,786.771057 513.362427,799.500610 
	C512.899841,803.525085 514.050537,804.949646 518.006958,804.937500 
	C529.482605,804.902283 540.958923,805.105774 552.434937,805.112183 
	C558.520142,805.115601 562.688782,809.173523 562.088989,815.786255 
	C561.308472,824.390747 559.812744,832.930359 558.619507,841.497192 
	C558.573730,841.825867 558.429504,842.143616 558.404541,842.472046 
	C557.417297,855.454895 555.193481,859.268250 538.581909,858.961792 
	C517.927429,858.580688 497.278442,857.896973 476.626953,857.349915 
	C475.296417,857.314697 473.946198,857.183594 472.636139,857.346436 
	C461.531647,858.727356 455.221741,853.044067 456.244263,841.831238 
	C458.511444,816.969238 461.125092,792.139038 463.548279,767.291016 
	C465.712982,745.093628 467.785522,722.887146 469.946198,700.689392 
	C472.461578,674.847168 475.051575,649.012268 477.566711,623.170044 
	C480.049683,597.657959 482.458466,572.138733 484.938721,546.626404 
	C487.451019,520.784668 490.023926,494.948792 492.546112,469.107971 
	C494.680328,447.241669 496.769257,425.370911 498.897583,403.504028 
	C501.445129,377.330322 504.030365,351.160248 506.567596,324.985565 
	C509.040619,299.473694 511.463959,273.957031 513.928406,248.444351 
	C515.096619,236.350693 516.274780,224.257782 517.517151,212.171585 
	C518.178162,205.740417 518.807678,199.294830 519.862610,192.923859 
	C520.102051,191.478149 521.949219,189.302765 523.221191,189.180618 
	C533.932983,188.152008 544.683167,187.522934 555.851196,186.777863 
z"/>
<path fill="#487901" opacity="1.000000" stroke="none" 
	d="
M481.714874,156.250854 
	C469.428589,154.392319 457.610321,152.523361 445.772156,150.790405 
	C444.135162,150.550797 442.400970,151.009628 440.709320,151.097092 
	C439.479706,151.160675 437.718475,151.650848 437.138306,151.045746 
	C436.279053,150.149506 435.751709,148.351959 435.994568,147.117447 
	C436.368561,145.216354 437.420593,143.417404 438.347382,141.660782 
	C477.527557,67.397850 539.066162,24.329231 621.562439,10.809892 
	C655.253418,5.288683 688.893555,6.864406 722.365051,13.123660 
	C726.920959,13.975642 727.635437,15.630775 725.851440,19.515091 
	C708.620239,57.033947 680.724548,85.351326 647.734131,108.985535 
	C613.321106,133.638901 574.906128,148.857880 532.964661,154.776184 
	C516.134521,157.151062 499.179291,158.280853 481.714874,156.250854 
z"/>
<path fill="#502C16" opacity="1.000000" stroke="none" 
	d="
M411.310669,212.046127 
	C408.094452,211.089828 405.359467,210.160751 402.307861,209.060028 
	C401.224915,201.843277 401.028381,194.679871 399.594269,187.773438 
	C393.185028,156.907425 381.112518,127.857033 369.700897,98.674545 
	C364.967621,86.570312 357.509796,75.536110 351.383789,63.966152 
	C350.607208,62.499462 350.396057,60.733395 349.823242,58.763065 
	C359.689850,58.108799 368.795807,57.563278 377.892120,56.888115 
	C391.490692,55.878769 405.100830,54.959980 418.665222,53.596909 
	C422.356537,53.225979 423.421753,54.555519 423.917572,57.662598 
	C426.651611,74.795815 429.377625,91.930779 432.230103,109.044518 
	C435.371887,127.894043 435.804596,146.722733 432.840729,165.658707 
	C430.990417,177.479996 429.906372,189.419968 428.133667,201.255035 
	C426.575439,211.658310 426.363464,211.617096 415.771454,211.766388 
	C414.443756,211.785095 413.118378,211.967041 411.310669,212.046127 
z"/>
<path fill="#FFFEFE" opacity="1.000000" stroke="none" 
	d="
M223.549957,258.518677 
	C228.102020,255.703903 232.289215,252.972443 236.636047,250.524460 
	C244.378815,246.164001 248.833221,248.251282 250.209137,257.031708 
	C252.887375,274.123016 255.357025,291.246918 257.936371,308.353790 
	C263.069855,342.400055 268.206970,376.445740 273.366730,410.488037 
	C276.158447,428.906891 279.019165,447.315308 281.804077,465.735199 
	C282.433929,469.901245 280.192505,472.290314 274.648621,473.055573 
	C262.286255,474.762054 249.906128,476.342834 237.525833,477.916473 
	C204.334076,482.135315 171.137009,486.312439 137.946030,490.537445 
	C133.675522,491.081055 129.431702,491.831390 125.169815,492.446442 
	C121.361092,492.996124 117.349937,490.103271 116.890633,485.620697 
	C116.044037,477.358429 114.853119,468.980133 115.382584,460.751678 
	C120.532288,380.719177 154.497162,315.282623 215.960876,263.978668 
	C218.254974,262.063782 220.818848,260.472046 223.549957,258.518677 
z"/>
<path fill="#FEFCFC" opacity="1.000000" stroke="none" 
	d="
M438.003235,327.046600 
	C447.634033,365.608551 443.184601,401.464630 419.671997,433.776855 
	C414.574768,440.781738 407.732330,446.516663 401.693726,452.836487 
	C401.089844,452.582886 400.485992,452.329254 399.882111,452.075623 
	C392.787598,387.629211 385.693085,323.182770 378.588409,258.644012 
	C400.383392,260.631317 427.553253,291.995636 438.003235,327.046600 
z"/>
</svg>